<svg xmlns="http://www.w3.org/2000/svg" width="46" height="46" viewBox="0 0 46 46">
  <g id="グループ_1238" data-name="グループ 1238" transform="translate(-430 -6674)">
    <circle id="楕円形_30" data-name="楕円形 30" cx="23" cy="23" r="23" transform="translate(430 6674)" fill="#fff"/>
    <g id="notebook" transform="translate(438.75 6681.946)">
      <path id="パス_1664" data-name="パス 1664" d="M21.375,11.25h6v1.714h-6Z" transform="translate(-4.554 -1.339)" fill="#eb940c"/>
      <path id="パス_1665" data-name="パス 1665" d="M21.375,16.875h6v1.714h-6Z" transform="translate(-4.554 -2.679)" fill="#eb940c"/>
      <path id="パス_1666" data-name="パス 1666" d="M21.375,22.5h6v1.714h-6Z" transform="translate(-4.554 -4.018)" fill="#eb940c"/>
      <path id="パス_1667" data-name="パス 1667" d="M24.536,5.625H3.964A1.716,1.716,0,0,0,2.25,7.339V22.768a1.716,1.716,0,0,0,1.714,1.714H24.536a1.717,1.717,0,0,0,1.714-1.714V7.339A1.716,1.716,0,0,0,24.536,5.625ZM3.964,7.339h9.429V22.768H3.964ZM15.107,22.768V7.339h9.429l0,15.429Z" transform="translate(0 0)" fill="#eb940c"/>
    </g>
  </g>
</svg>
