<svg xmlns="http://www.w3.org/2000/svg" width="15" height="9.842" viewBox="0 0 15 9.842">
  <g id="dial" transform="translate(0 -88.032)">
    <path id="パス_85" data-name="パス 85" d="M0,88.032v1.534a8.844,8.844,0,0,1,3.226.6q.266.105.517.226a8.175,8.175,0,0,1,1.221-.468A8.979,8.979,0,0,1,7.5,89.566a8.848,8.848,0,0,1,3.24.6q.266.105.517.226a8.182,8.182,0,0,1,1.221-.468A8.983,8.983,0,0,1,15,89.566V88.032Z" fill="#463f3b"/>
    <path id="パス_86" data-name="パス 86" d="M320.59,208.33a1.865,1.865,0,0,0,2.907,1.546,1.861,1.861,0,0,0,.822-1.546,1.591,1.591,0,0,0-.12-.586,2.583,2.583,0,0,0-.371-.632,4.714,4.714,0,0,0-1.374-1.145,5.069,5.069,0,0,0-1.128.863,2.8,2.8,0,0,0-.642.983A1.557,1.557,0,0,0,320.59,208.33Z" transform="translate(-311.198 -114.479)" fill="#463f3b"/>
    <path id="パス_87" data-name="パス 87" d="M13.082,174.555a3.762,3.762,0,0,1,.857,1.332,2.525,2.525,0,0,1,.149.84,2.831,2.831,0,1,1-5.663,0,2.686,2.686,0,0,1,.325-1.241,4.222,4.222,0,0,1,.855-1.1,5.885,5.885,0,0,1,.613-.5c-.148-.054-.3-.105-.456-.151a8.021,8.021,0,0,0-2.262-.321,7.91,7.91,0,0,0-2.719.472,5.671,5.671,0,0,1,.787.674,3.764,3.764,0,0,1,.857,1.332,2.522,2.522,0,0,1,.149.84,2.831,2.831,0,1,1-5.663,0,2.687,2.687,0,0,1,.324-1.241,4.223,4.223,0,0,1,.855-1.1,5.869,5.869,0,0,1,.613-.5c-.148-.054-.3-.105-.456-.151A8.025,8.025,0,0,0,0,173.409v7.341H15v-7.341a7.913,7.913,0,0,0-2.7.472A5.671,5.671,0,0,1,13.082,174.555Z" transform="translate(0 -82.876)" fill="#463f3b"/>
    <path id="パス_88" data-name="パス 88" d="M64.118,208.33a1.865,1.865,0,0,0,2.907,1.546,1.862,1.862,0,0,0,.823-1.546,1.6,1.6,0,0,0-.12-.586,2.592,2.592,0,0,0-.371-.632,4.719,4.719,0,0,0-1.374-1.145,5.065,5.065,0,0,0-1.128.863,2.8,2.8,0,0,0-.642.983A1.555,1.555,0,0,0,64.118,208.33Z" transform="translate(-62.24 -114.479)" fill="#463f3b"/>
  </g>
</svg>
