<svg xmlns="http://www.w3.org/2000/svg" width="46" height="46" viewBox="0 0 46 46">
  <g id="hand" transform="translate(-430 -6674)">
    <circle id="楕円形_30" data-name="楕円形 30" cx="23" cy="23" r="23" transform="translate(430 6674)" fill="#fff"/>
    <g id="hand-right-outline" transform="translate(438.374 6683.51)">
      <path id="パス_1668" data-name="パス 1668" d="M28.987,19.306a.748.748,0,0,1-.748-.748V9.305a.935.935,0,1,0-1.869,0v5.888a.748.748,0,1,1-1.5,0V9.305a2.43,2.43,0,1,1,4.86,0v9.253A.748.748,0,0,1,28.987,19.306Z" transform="translate(-5.109 -1.703)" fill="#18457c"/>
      <path id="パス_1669" data-name="パス 1669" d="M24.487,14.806a.748.748,0,0,1-.748-.748V4.805a.935.935,0,0,0-1.869,0v8.412a.748.748,0,1,1-1.5,0V4.805a2.43,2.43,0,1,1,4.86,0v9.253A.748.748,0,0,1,24.487,14.806Z" transform="translate(-3.973 -0.568)" fill="#18457c"/>
      <path id="パス_1670" data-name="パス 1670" d="M12.123,18.454a.748.748,0,0,1-.748-.748V5.93a2.43,2.43,0,1,1,4.86,0v7.623a.748.748,0,0,1-1.5,0V5.93a.935.935,0,0,0-1.869,0V17.706A.748.748,0,0,1,12.123,18.454Z" transform="translate(-1.703 -0.852)" fill="#18457c"/>
      <path id="パス_1671" data-name="パス 1671" d="M19.987,13.4a.748.748,0,0,1-.748-.748V2.555a.935.935,0,0,0-1.869,0V12.649a.748.748,0,1,1-1.5,0V2.555a2.43,2.43,0,0,1,4.86,0V12.649A.748.748,0,0,1,19.987,13.4Z" transform="translate(-2.838)" fill="#18457c"/>
      <path id="パス_1672" data-name="パス 1672" d="M15.887,30.4a9.309,9.309,0,0,1-5.553-1.5,7.915,7.915,0,0,1-2.707-3.588l-.013-.032-2.769-7.57a2.465,2.465,0,0,1,.957-3.2,2.529,2.529,0,0,1,1.948-.232,2.314,2.314,0,0,1,1.412,1.147q.016.03.029.062l1.918,4.622a.748.748,0,0,1-1.381.573L7.827,16.1a.824.824,0,0,0-.5-.383,1.025,1.025,0,0,0-.79.1c-.44.25-.539.716-.292,1.384l2.763,7.555c.865,2.056,2.362,4.152,6.874,4.152,4.536,0,7.244-3.179,7.244-8.505a.748.748,0,0,1,1.5,0,13.514,13.514,0,0,1-.637,4.287,8.7,8.7,0,0,1-1.822,3.16A8.267,8.267,0,0,1,15.887,30.4Z" transform="translate(0 -3.547)" fill="#18457c"/>
    </g>
  </g>
</svg>
