<svg xmlns="http://www.w3.org/2000/svg" xmlns:xlink="http://www.w3.org/1999/xlink" width="138" height="80" viewBox="0 0 138 80">
  <defs>
    <clipPath id="clip-path">
      <rect id="長方形_796" data-name="長方形 796" width="42" height="34.842" fill="none" stroke="#fff" stroke-width="1.2"/>
    </clipPath>
  </defs>
  <g id="step05" transform="translate(-470 -7500)">
    <g id="グループ_967" data-name="グループ 967" transform="translate(9 707)">
      <text id="_05" data-name="05" transform="translate(461 6854)" fill="#fff" font-size="38" font-family="NotoSansJP-Regular, Noto Sans JP"><tspan x="0" y="0">05</tspan></text>
      <text id="STEP" transform="translate(467 6817)" fill="#fff" font-size="12" font-family="NotoSansJP-Medium, Noto Sans JP" font-weight="500"><tspan x="0" y="0">STEP</tspan></text>
    </g>
    <g id="グループ_968" data-name="グループ 968" transform="translate(4 700)">
      <g id="楕円形_53" data-name="楕円形 53" transform="translate(524 6800)" fill="none" stroke="#fff" stroke-width="1.2">
        <circle cx="40" cy="40" r="40" stroke="none"/>
        <circle cx="40" cy="40" r="39.4" fill="none"/>
      </g>
      <g id="icon_06" transform="translate(543 6822.579)">
        <g id="グループ_105" data-name="グループ 105">
          <g id="グループ_104" data-name="グループ 104" clip-path="url(#clip-path)">
            <path id="パス_2177" data-name="パス 2177" d="M43.2,17.026H2.5L5.572,2.5H40.13Z" transform="translate(-1.852 -1.853)" fill="none" stroke="#fff" stroke-linecap="round" stroke-linejoin="round" stroke-width="1.2"/>
            <path id="パス_2178" data-name="パス 2178" d="M50.787,74.016V88.958H18.24V74.016" transform="translate(-13.515 -54.842)" fill="none" stroke="#fff" stroke-linecap="round" stroke-linejoin="round" stroke-width="1.2"/>
          </g>
        </g>
        <rect id="長方形_797" data-name="長方形 797" width="5.718" height="5.718" transform="translate(26.243 23.366)" fill="none" stroke="#fff" stroke-linecap="round" stroke-linejoin="round" stroke-width="1.2"/>
        <g id="グループ_107" data-name="グループ 107">
          <g id="グループ_106" data-name="グループ 106" clip-path="url(#clip-path)">
            <rect id="長方形_798" data-name="長方形 798" width="5.29" height="11.856" transform="translate(15.452 22.339)" fill="none" stroke="#fff" stroke-linecap="round" stroke-linejoin="round" stroke-width="1.2"/>
            <rect id="長方形_799" data-name="長方形 799" width="5.29" height="11.856" transform="translate(10.162 22.339)" fill="none" stroke="#fff" stroke-linecap="round" stroke-linejoin="round" stroke-width="1.2"/>
            <line id="線_32" data-name="線 32" x1="2.291" y2="14.526" transform="translate(8.797 0.648)" fill="none" stroke="#fff" stroke-linecap="round" stroke-linejoin="round" stroke-width="1.2"/>
            <line id="線_33" data-name="線 33" x1="0.669" y2="14.526" transform="translate(16.935 0.648)" fill="none" stroke="#fff" stroke-linecap="round" stroke-linejoin="round" stroke-width="1.2"/>
            <line id="線_34" data-name="線 34" x2="2.291" y2="14.526" transform="translate(30.922 0.648)" fill="none" stroke="#fff" stroke-linecap="round" stroke-linejoin="round" stroke-width="1.2"/>
            <line id="線_35" data-name="線 35" x2="0.669" y2="14.526" transform="translate(24.405 0.648)" fill="none" stroke="#fff" stroke-linecap="round" stroke-linejoin="round" stroke-width="1.2"/>
            <path id="パス_2179" data-name="パス 2179" d="M2.538,58.573a4.035,4.035,0,0,0,4.069,4,4.036,4.036,0,0,0,4.07-4Z" transform="translate(-1.881 -43.4)" fill="none" stroke="#fff" stroke-linecap="round" stroke-linejoin="round" stroke-width="1.2"/>
            <path id="パス_2180" data-name="パス 2180" d="M33.957,58.573a4.07,4.07,0,0,0,8.139,0Z" transform="translate(-25.161 -43.4)" fill="none" stroke="#fff" stroke-linecap="round" stroke-linejoin="round" stroke-width="1.2"/>
            <path id="パス_2181" data-name="パス 2181" d="M65.375,58.573a4.07,4.07,0,0,0,8.139,0Z" transform="translate(-48.44 -43.4)" fill="none" stroke="#fff" stroke-linecap="round" stroke-linejoin="round" stroke-width="1.2"/>
            <path id="パス_2182" data-name="パス 2182" d="M96.794,58.573a4.07,4.07,0,0,0,8.139,0Z" transform="translate(-71.72 -43.4)" fill="none" stroke="#fff" stroke-linecap="round" stroke-linejoin="round" stroke-width="1.2"/>
            <path id="パス_2183" data-name="パス 2183" d="M128.213,58.573a4.07,4.07,0,0,0,8.139,0Z" transform="translate(-95 -43.4)" fill="none" stroke="#fff" stroke-linecap="round" stroke-linejoin="round" stroke-width="1.2"/>
          </g>
        </g>
      </g>
    </g>
  </g>
</svg>
