<svg xmlns="http://www.w3.org/2000/svg" xmlns:xlink="http://www.w3.org/1999/xlink" width="138" height="80" viewBox="0 0 138 80">
  <defs>
    <clipPath id="clip-path">
      <rect id="長方形_793" data-name="長方形 793" width="19.399" height="30.507" fill="none" stroke="#dfc348" stroke-width="1.2"/>
    </clipPath>
  </defs>
  <g id="step04_v2" transform="translate(-470 -7325)">
    <g id="グループ_963" data-name="グループ 963" transform="translate(9 532)">
      <text id="_04" data-name="04" transform="translate(461 6854)" fill="#dfc348" font-size="38" font-family="NotoSerifJP-Bold, Noto Serif JP" font-weight="700"><tspan x="0" y="0">04</tspan></text>
      <text id="STEP" transform="translate(468 6817)" fill="#dfc348" font-size="12" font-family="NotoSerifJP-Bold, Noto Serif JP" font-weight="700"><tspan x="0" y="0">STEP</tspan></text>
    </g>
    <g id="グループ_964" data-name="グループ 964" transform="translate(4 525)">
      <g id="楕円形_53" data-name="楕円形 53" transform="translate(524 6800)" fill="none" stroke="#dfc348" stroke-width="1.2">
        <circle cx="40" cy="40" r="40" stroke="none"/>
        <circle cx="40" cy="40" r="39.4" fill="none"/>
      </g>
      <g id="icon_04" transform="translate(603 6824.746)">
        <g id="グループ_91" data-name="グループ 91" transform="translate(-37.399)" clip-path="url(#clip-path)">
          <path id="パス_2163" data-name="パス 2163" d="M47.749,8.406a3.071,3.071,0,1,0-3.214-2.922A3.071,3.071,0,0,0,47.749,8.406Z" transform="translate(-37.384 -1.903)" fill="none" stroke="#dfc348" stroke-linecap="round" stroke-linejoin="round" stroke-width="1.2"/>
          <path id="パス_2164" data-name="パス 2164" d="M13.846,60.308a2.143,2.143,0,0,0,1.807-1.937h0l.18-8.762c0-2.118-1.057-3.147-3.216-3.044a3.534,3.534,0,0,0-2.028.625h0L8.3,48.879l-.974.771-.487.386-.122.1-.03.024,0,0,0,.006-.019.024-.021.007-.011,0c-.007,0,.006,0-.048,0l-.467.028-.934.056L3.312,50.4a1.139,1.139,0,0,0,.079,2.273l1.871-.018.936-.009.468,0,.855-.018.816-.594.505-.361.993-.709.724,5.965-6.124.708-.221,3.459L4.1,62.907l-.228,4.342a1.728,1.728,0,0,0,1.414,1.973A1.728,1.728,0,0,0,7.007,67.51l.376-4.329.188-1.808.044-.421.013-.041.024-.069.085,0h.031l.025,0,5.456-.482A2.579,2.579,0,0,0,13.846,60.308Z" transform="translate(-1.903 -39.084)" fill="none" stroke="#dfc348" stroke-linecap="round" stroke-linejoin="round" stroke-width="1.2"/>
          <path id="パス_2165" data-name="パス 2165" d="M52.592,66.025a1.238,1.238,0,0,0-1.341,1.126c-.007.079-.688,7.881-.989,9.549a3.332,3.332,0,0,1-.447,1.455.478.478,0,0,1-.086.006H42.56a1.239,1.239,0,0,0,0,2.477h7.169c2.339,0,2.766-2.363,2.971-3.5.321-1.779.991-9.449,1.019-9.775A1.239,1.239,0,0,0,52.592,66.025Z" transform="translate(-34.688 -55.423)" fill="none" stroke="#dfc348" stroke-linecap="round" stroke-linejoin="round" stroke-width="1.2"/>
        </g>
        <g id="グループ_93" data-name="グループ 93" transform="translate(-60)" clip-path="url(#clip-path)">
          <path id="パス_2166" data-name="パス 2166" d="M47.457,8.406a3.071,3.071,0,1,1,3.214-2.922A3.071,3.071,0,0,1,47.457,8.406Z" transform="translate(-38.424 -1.903)" fill="none" stroke="#dfc348" stroke-linecap="round" stroke-linejoin="round" stroke-width="1.2"/>
          <path id="パス_2167" data-name="パス 2167" d="M4.257,60.308A2.143,2.143,0,0,1,2.45,58.371h0l-.18-8.762c0-2.118,1.057-3.147,3.216-3.044a3.534,3.534,0,0,1,2.028.625h0l2.294,1.691.974.771.487.386.122.1.03.024,0,0,0,.006.019.024.021.007.011,0c.007,0-.006,0,.048,0l.467.028.934.056,1.868.112a1.139,1.139,0,0,1-.079,2.273l-1.871-.018-.936-.009-.468,0-.855-.018-.816-.594-.505-.361-.993-.709-.724,5.966,6.124.708.221,3.459L14,62.907l.228,4.342a1.728,1.728,0,0,1-1.414,1.973A1.728,1.728,0,0,1,11.1,67.51l-.376-4.329-.188-1.808-.044-.421-.013-.041-.024-.069-.085,0h-.031l-.025,0L4.853,60.36A2.579,2.579,0,0,1,4.257,60.308Z" transform="translate(3.199 -39.084)" fill="none" stroke="#dfc348" stroke-linecap="round" stroke-linejoin="round" stroke-width="1.2"/>
          <path id="パス_2168" data-name="パス 2168" d="M42.452,66.025a1.238,1.238,0,0,1,1.341,1.126c.007.079.688,7.881.989,9.549a3.332,3.332,0,0,0,.447,1.455.479.479,0,0,0,.086.006h7.169a1.239,1.239,0,1,1,0,2.477H45.316c-2.339,0-2.766-2.363-2.971-3.5-.321-1.779-.991-9.449-1.019-9.775A1.239,1.239,0,0,1,42.452,66.025Z" transform="translate(-40.957 -55.423)" fill="none" stroke="#dfc348" stroke-linecap="round" stroke-linejoin="round" stroke-width="1.2"/>
        </g>
      </g>
    </g>
  </g>
</svg>
