<svg id="AdobeStock_597692809" xmlns="http://www.w3.org/2000/svg" width="25.424" height="18" viewBox="0 0 25.424 18">
  <path id="パス_1674" data-name="パス 1674" d="M134.1,125.1a9,9,0,1,0,9,9A9,9,0,0,0,134.1,125.1Zm0,15.75a6.75,6.75,0,1,1,6.75-6.75,6.757,6.757,0,0,1-6.75,6.75Z" transform="translate(-121.725 -125.1)" fill="#380909"/>
  <circle id="楕円形_60" data-name="楕円形 60" cx="6.3" cy="6.3" r="6.3" transform="translate(6.075 2.7)" fill="#380909"/>
  <path id="パス_1675" data-name="パス 1675" d="M535.852,128.254c0-1.74-1.007-3.15-2.25-3.15s-2.25,1.41-2.25,3.15a3.108,3.108,0,0,0,1.743,3.067l-.363,10.884a.871.871,0,1,0,1.74,0l-.363-10.884A3.107,3.107,0,0,0,535.852,128.254Z" transform="translate(-510.428 -125.104)" fill="#380909"/>
  <path id="パス_1676" data-name="パス 1676" d="M49.677,128.7h-.45v-3.6h-.45v3.6h-.45v-3.6h-.45v3.6h-.45v-3.6h-.45v5.4a.9.9,0,0,0,.9.9h.165l-.36,10.8a.87.87,0,1,0,1.74,0l-.36-10.8h.165a.9.9,0,0,0,.9-.9v-5.4h-.45Z" transform="translate(-46.977 -125.1)" fill="#380909"/>
</svg>
