<svg xmlns="http://www.w3.org/2000/svg" width="46" height="46" viewBox="0 0 46 46">
  <g id="グループ_1111" data-name="グループ 1111" transform="translate(-430 -6674)">
    <circle id="楕円形_30" data-name="楕円形 30" cx="23" cy="23" r="23" transform="translate(430 6674)" fill="#fff"/>
    <g id="hand" transform="translate(400.632 6685)">
      <path id="パス_1668" data-name="パス 1668" d="M59.492,2.313V2.308h-.337v.005a2.578,2.578,0,0,0-.276.033A2.6,2.6,0,0,0,55.016.615a2.595,2.595,0,0,0-4.227,1.5,2.6,2.6,0,0,0-3.164,2.533v4.49c-.093-.138-.184-.264-.273-.38a4,4,0,0,0-.74-.752,2.867,2.867,0,0,0-.583-.345,2.637,2.637,0,0,0-.85-.217c-.07-.006-.143-.009-.215-.009a2.6,2.6,0,0,0-2.558,3.032,10.965,10.965,0,0,0,.454,1.549c.415,1.185,1.057,2.766,1.909,4.7a13.3,13.3,0,0,0,3.764,4.992,8.56,8.56,0,0,0,5.3,1.718,7.7,7.7,0,0,0,7.577-5.023,8.485,8.485,0,0,0,.505-2.729V4.9A2.6,2.6,0,0,0,59.492,2.313ZM53.837,21.89A7.059,7.059,0,0,1,49.5,20.512,11.832,11.832,0,0,1,46.176,16.1c-1-2.276-1.556-3.709-1.865-4.59a9.067,9.067,0,0,1-.389-1.3,1.058,1.058,0,0,1,1.041-1.236l.089,0a1.114,1.114,0,0,1,.356.092,1.334,1.334,0,0,1,.27.16,2.487,2.487,0,0,1,.456.469,13.294,13.294,0,0,1,1.321,2.309,4.841,4.841,0,0,0,.73,1.147,1.453,1.453,0,0,0,.5.391.414.414,0,0,0,.155.035.236.236,0,0,0,.1-.023.356.356,0,0,0,.109-.082.4.4,0,0,0,.11-.239V4.647a1.058,1.058,0,0,1,2.115,0v6.121h1V2.6a1.058,1.058,0,0,1,2.115,0v8.173h.876V2.853a1.058,1.058,0,0,1,2.115,0v7.916h.876V4.9a1.058,1.058,0,1,1,2.115,0V15.672a6.9,6.9,0,0,1-.418,2.221A6.178,6.178,0,0,1,53.837,21.89Z" transform="translate(0 0)" fill="#18457c"/>
    </g>
  </g>
</svg>
