<svg xmlns="http://www.w3.org/2000/svg" width="32" height="29.713" viewBox="0 0 32 29.713">
  <g id="check2-square" transform="translate(-18 -18)">
    <g id="グループ_1218" data-name="グループ 1218" transform="translate(18 18)">
      <path id="パス_9732" data-name="パス 9732" d="M21.428,47.713A3.428,3.428,0,0,1,18,44.285V21.428A3.428,3.428,0,0,1,21.428,18H39.713a1.143,1.143,0,1,1,0,2.286H21.428a1.143,1.143,0,0,0-1.143,1.143V44.285a1.143,1.143,0,0,0,1.143,1.143H44.285a1.143,1.143,0,0,0,1.143-1.143V32.856a1.143,1.143,0,1,1,2.286,0V44.285a3.428,3.428,0,0,1-3.428,3.428Z" transform="translate(-18 -18)" fill="#eb940c"/>
      <path id="パス_9733" data-name="パス 9733" d="M62.8,47.945l16-16a1.144,1.144,0,1,0-1.618-1.618L61.994,45.52l-6.048-6.05a1.144,1.144,0,0,0-1.618,1.618l6.857,6.857a1.143,1.143,0,0,0,1.618,0Z" transform="translate(-47.137 -27.708)" fill="#eb940c"/>
    </g>
  </g>
</svg>
