<svg xmlns="http://www.w3.org/2000/svg" width="375.407" height="156.026" viewBox="0 0 375.407 156.026">
  <path id="パス_9524" data-name="パス 9524" d="M-101.64-6.336q.528-.7,1.144-.176a.7.7,0,0,1,.088,1.056q-.176.176-1.1,1.452t-2.464,3.168q-1.54,1.892-3.564,4.136t-4.18,4.356q-2.156,2.112-4.444,3.96a22.355,22.355,0,0,1-4.312,2.816h-.088a7.362,7.362,0,0,1-.924.528,4.2,4.2,0,0,1-1.98.44h-.176a.613.613,0,0,0-.264.044.613.613,0,0,1-.264.044h-.088a4.349,4.349,0,0,1-3.52-1.936A8.178,8.178,0,0,1-128.788,8.8a48.911,48.911,0,0,1,.924-8.008q.88-4.752,2.508-10.956t3.74-13.684q-2.024.968-4.84,2.332t-6.116,3.124q-3.3,1.76-7.04,3.828t-7.524,4.356q-3.7,5.808-7.3,11.308t-6.952,9.988Q-170.016,22.7-175.56,23.5h-.88a5.267,5.267,0,0,1-3.432-1.144,4.547,4.547,0,0,1-1.672-4.752,16.147,16.147,0,0,1,3.256-6.424,55.14,55.14,0,0,1,7.26-7.656A118.7,118.7,0,0,1-160.38-4.84q6.116-4.312,13.332-8.448L-137.9-27.9q5.544-8.976,9.548-15.356t6.864-10.384a52.8,52.8,0,0,1,4.664-5.852q1.8-1.848,2.948-1.672h.088a1.569,1.569,0,0,1,1.232.88,3.469,3.469,0,0,1,.44,1.232q.968,3.52-.88,11.616t-5.28,20.416q2.9-1.056,5.852-2.068t5.94-1.98a.741.741,0,0,1,.968.528q.176.792-.528.968-3.344,1.056-6.512,2.156T-118.8-25.08q-1.672,5.984-3.256,11.924t-2.728,11.22a54.654,54.654,0,0,0-1.188,7.26,26.82,26.82,0,0,0-.044,4.576,7.331,7.331,0,0,0,.616,2.552,2.754,2.754,0,0,0,.88,1.1,1.581,1.581,0,0,0,.968.264,8.758,8.758,0,0,0,3.52-1.364,32.388,32.388,0,0,0,4.048-2.992q2.112-1.8,4.224-3.96t4.048-4.356q1.936-2.2,3.476-4.18T-101.64-6.336Zm-42.5-8.624q5.368-2.9,11.176-5.676t11.88-5.236l.616-2.2q1.32-4.752,2.684-9.68t2.42-9.152q1.056-4.224,1.54-7.392a12.95,12.95,0,0,0,.132-4.576,1.047,1.047,0,0,0-.528-.7q-.968.176-3.256,3.124t-5.368,7.612q-3.08,4.664-6.644,10.384T-136.576-27.1Zm-18.48,25.08q2.9-3.96,6.028-8.668t6.38-9.724q-5.368,3.344-10.472,6.908a109.125,109.125,0,0,0-9.2,7.128,57.648,57.648,0,0,0-6.82,6.908,15.243,15.243,0,0,0-3.344,6.248,3.028,3.028,0,0,0,1.144,2.2,3.816,3.816,0,0,0,3.08.792Q-170.72,21.208-162.624,10.12ZM-79.816-6.6q.616-.264.968.528a.965.965,0,0,1-.616.968,49.75,49.75,0,0,0-6.028,2.2Q-88.264-1.672-90.464-.44A40.769,40.769,0,0,0-94.2,1.892q-1.54,1.1-2.332,1.716L-97.5,4.4a.078.078,0,0,0-.088.088.254.254,0,0,0-.176.088h-.44a.078.078,0,0,1-.088-.088A.359.359,0,0,1-98.56,4.4V4.312q-.176-.088-.176-.528V3.7a.254.254,0,0,0,.088-.176.078.078,0,0,1,.088-.088q0-.176.088-.176l.088-.088h.088q1.584-1.408,3.432-3.256t3.432-3.74a27.292,27.292,0,0,0,2.6-3.608A4.426,4.426,0,0,0-88-10.208a1.418,1.418,0,0,0-.176-.616,1.54,1.54,0,0,0-.88-.616,5.509,5.509,0,0,0-3.828.968,15.876,15.876,0,0,0-3.608,3.344A32.954,32.954,0,0,0-99.66-2.42q-1.452,2.6-2.6,5.06l-.7,2.64q-.352,1.32-.792,2.64a.815.815,0,0,1-.88.616h-.88V8.448q-.088,0-.088-.044t-.088-.044a.078.078,0,0,0-.088-.088l-.088-.088V8.008a.254.254,0,0,1-.088-.176l.088-.088V7.656q1.848-6.688,4.048-13.6t4.664-13.2q2.464-6.292,5.016-11.616a59.706,59.706,0,0,1,5.1-8.888A16.906,16.906,0,0,1-82.1-44.572a3.783,3.783,0,0,1,4.488.22q1.848,1.5-.44,7.04a55.79,55.79,0,0,1-2.9,5.5q-1.936,3.3-4.312,6.952t-4.972,7.348q-2.6,3.7-4.708,6.688a11.307,11.307,0,0,1,3.08-1.848,6.175,6.175,0,0,1,3.256-.352q2.728.528,3.08,2.376a5.69,5.69,0,0,1-1.232,3.916,36.453,36.453,0,0,1-3.52,4.444q2.112-1.144,4.752-2.288A46.54,46.54,0,0,1-79.816-6.6Zm-1.76-35.9a20.8,20.8,0,0,0-4.312,5.1,78.778,78.778,0,0,0-4.444,8.052q-2.244,4.62-4.4,10.12T-98.912-7.92q1.936-2.64,4.8-6.688t5.764-8.36q2.9-4.312,5.324-8.316a56.059,56.059,0,0,0,3.476-6.468,22.156,22.156,0,0,0,.836-2.156,5.761,5.761,0,0,0,.352-2.068,1.159,1.159,0,0,0-.748-1.144A3.651,3.651,0,0,0-81.576-42.5Zm27.72,35.9q.792-.352.968.528a.741.741,0,0,1-.528.968A28.962,28.962,0,0,1-60.192-3.74a15.8,15.8,0,0,1-4.488-.308.254.254,0,0,1-.088.176,30.289,30.289,0,0,1-2.2,3.124,17.62,17.62,0,0,1-2.64,2.684,14.2,14.2,0,0,1-2.9,1.848,6.8,6.8,0,0,1-2.9.7,5.046,5.046,0,0,1-4.136-1.98,6.414,6.414,0,0,1-1.5-4.356,13.1,13.1,0,0,1,1.232-4.84,23.055,23.055,0,0,1,3.036-4.928,27.683,27.683,0,0,1,4.224-4.268,18.192,18.192,0,0,1,4.8-2.86,1.61,1.61,0,0,1,.748,0,1.5,1.5,0,0,1,.616.264.372.372,0,0,1,.088.484,1.7,1.7,0,0,1-.748.66,26.315,26.315,0,0,0-4.576,3.168,25.193,25.193,0,0,0-3.476,3.652A18.089,18.089,0,0,0-77.4-6.688a14.964,14.964,0,0,0-1.1,3.7q-.528,3.7.88,4.884a3.819,3.819,0,0,0,3.564.66A11.139,11.139,0,0,0-69.608.088a12.228,12.228,0,0,0,3.432-4.664q-.176-.176-.264-.176l-.352-.176A5.035,5.035,0,0,1-67.98-5.94a7.983,7.983,0,0,1-.748-1.012,5.171,5.171,0,0,1-.484-3.124,8.518,8.518,0,0,1,1.056-3.256A4.93,4.93,0,0,1-66.044-15.4a2.25,2.25,0,0,1,2.6.528,3.2,3.2,0,0,1,1.144,1.76,6.728,6.728,0,0,1,.132,2.332,11.413,11.413,0,0,1-.616,2.64q-.484,1.364-1.1,2.684Q-60.1-4.752-53.856-6.6Zm-11.528.616a14.046,14.046,0,0,0,1.672-4.752q.264-2.112-.7-2.9a.811.811,0,0,0-1.232-.088,2.5,2.5,0,0,0-.792,1.056,4.98,4.98,0,0,0-.528,1.452,8.527,8.527,0,0,0-.176,1.76,4.817,4.817,0,0,0,.352,1.8,3.867,3.867,0,0,0,1.056,1.5Zm36.52-.352q.528-.7,1.144-.176.7.528.176,1.144A26.449,26.449,0,0,1-33.176.308a9.077,9.077,0,0,1-5.016,1.98,4.01,4.01,0,0,1-2.2-.616A4.079,4.079,0,0,1-41.932-.7a9.953,9.953,0,0,1-.044-4.312A23.735,23.735,0,0,1-47.036.44a7.455,7.455,0,0,1-4.62,1.76A3.058,3.058,0,0,1-54.472.44q-.968-2.024.044-5.368a23.587,23.587,0,0,1,3.74-7.04.913.913,0,0,1,.968-.484,1.122,1.122,0,0,1,.968.484q.264.352-.088.88A16.986,16.986,0,0,0-50.468-8.8,23.006,23.006,0,0,0-52.1-5.632a11.746,11.746,0,0,0-.88,3.3A3.964,3.964,0,0,0-52.36.44a1.2,1.2,0,0,0,.792.176,4.415,4.415,0,0,0,2.552-.748,14.69,14.69,0,0,0,2.948-2.42A33.062,33.062,0,0,0-42.9-6.424a57.069,57.069,0,0,0,3.212-5.1q.44-.88.924-1.8t1.012-1.892a.078.078,0,0,0,.088-.088l.088-.088.088-.088q.088,0,.088-.044t.088-.044h.176v-.088h.7a.786.786,0,0,1,.792.352.659.659,0,0,1,0,.792Q-36.7-12.672-37.8-10.384A30.809,30.809,0,0,0-39.556-5.9a15.186,15.186,0,0,0-.7,3.916A2.7,2.7,0,0,0-39.336.44q1.408.792,4.268-.748T-28.864-6.336Zm15.048,0a.537.537,0,0,1,.484-.352,1.011,1.011,0,0,1,.572.176q.528.352.176,1.144-1.056,2.2-2.552,5.06a34.535,34.535,0,0,1-3.388,5.28,17.434,17.434,0,0,1-4.092,3.872,5.6,5.6,0,0,1-4.488.924Q-32.12,8.1-29.216-5.1a4.852,4.852,0,0,1,.176-.968q.7-3.168,1.848-6.82t2.552-7.348q-3.08.88-5.016,1.5t-3.124,1.012q-1.188.4-1.672.616a2.585,2.585,0,0,1-.572.22.359.359,0,0,1-.264.088.685.685,0,0,1-.7-.44.733.733,0,0,1,.44-1.056l.616-.264q.616-.264,1.936-.748t3.52-1.188q2.2-.7,5.544-1.584,2.376-6.336,5.1-12.056a100.166,100.166,0,0,1,5.192-9.68,37.107,37.107,0,0,1,2.288-3.52A4.865,4.865,0,0,1-9.328-49.1a1.773,1.773,0,0,1,1.5-.044,1.453,1.453,0,0,1,.968.924,5.78,5.78,0,0,1,.044,3.168A31.97,31.97,0,0,1-8.4-39.688q-1.188,3.168-3.08,7.128t-4.356,8.448q4.312-.88,8.844-1.5a78.324,78.324,0,0,1,9.02-.7.7.7,0,0,1,.792.792.7.7,0,0,1-.792.792,76.419,76.419,0,0,0-9.592.792q-4.84.7-9.328,1.672-2.024,3.7-4.444,7.568t-5.236,7.832a46.781,46.781,0,0,0-1.1,5.016,33.182,33.182,0,0,0-.44,4.532,14.393,14.393,0,0,0,.308,3.564,2.9,2.9,0,0,0,1.32,2.024,3.835,3.835,0,0,0,3.036-.748A14.965,14.965,0,0,0-20.02,4.312,39.311,39.311,0,0,0-16.676-.572,45.8,45.8,0,0,0-13.816-6.336Zm1.144-35.992q-1.936,3.7-4.136,8.932T-21.032-22.88q.7-.176,1.5-.352l1.584-.352q2.816-5.016,4.84-9.24T-9.9-40.172a30.352,30.352,0,0,0,1.54-5.06q.352-1.936,0-2.376-.616,0-1.716,1.364A33.3,33.3,0,0,0-12.672-42.328Zm-9.064,21.3q-.968,2.376-1.716,4.62t-1.452,4.18q1.672-2.552,3.124-4.884t2.772-4.62q-.7.176-1.364.352T-21.736-21.032ZM58.256-63.008a.733.733,0,0,1,1.056.44.7.7,0,0,1-.352,1.056q-10.12,4.576-19.536,8.1t-16.1,5.808l-8.536,27.28q3.784-1.32,8.58-3.212T33.7-27.984a.773.773,0,0,1,1.056.352.773.773,0,0,1-.352,1.056q-6.072,2.816-11.176,4.8t-9.064,3.3L5.28,9.944a8.16,8.16,0,0,0-.352,1.276q-.176.836-.308,1.76a9.413,9.413,0,0,0-.088,1.8,3.579,3.579,0,0,0,.308,1.408,1.4,1.4,0,0,0,.792.616H5.72a13.75,13.75,0,0,0,4.972-1.32q3.124-1.32,6.908-3.388t7.964-4.708q4.18-2.64,8.052-5.236t7.216-4.884q3.344-2.288,5.456-3.784.7-.528,1.056.176a.669.669,0,0,1-.176,1.056Q37.048,1.848,29.92,6.468t-11.968,7.26a57.179,57.179,0,0,1-7.7,3.652A14.563,14.563,0,0,1,5.72,18.392a3.931,3.931,0,0,1-2.376-.7,3.716,3.716,0,0,1-1.32-3.476,24.041,24.041,0,0,1,.88-4.8l8.36-26.928q-2.816.968-4.4,1.364a10.221,10.221,0,0,0-1.672.484H5.016a.76.76,0,0,1-.792-.616.717.717,0,0,1,.616-.968l1.848-.528q.968-.264,2.2-.66t2.9-.924q2.288-7.128,4.488-14.212T20.416-46.64q-3.608,1.232-5.676,1.8a10.745,10.745,0,0,0-2.068.66h-.264a.853.853,0,0,1-.792-.616q-.176-.616.616-.968,1.056-.352,2.376-.7l2.728-.836q1.584-.484,3.608-1.188,1.936-6.072,3.168-9.944t1.232-4.048a.846.846,0,0,1,.792-.528H27.1a.685.685,0,0,1,.616.264,1.251,1.251,0,0,1,.176.7l-3.96,12.5L31.2-52.1q4-1.408,8.4-3.08t9.108-3.652Q53.416-60.808,58.256-63.008ZM76.208-6.424q.616.528,0,1.144Q71.1-.264,66.836,1.452a20.288,20.288,0,0,1-7.348,1.716A13.533,13.533,0,0,1,54.3,2.156,12.1,12.1,0,0,1,50.072-.7a58.141,58.141,0,0,0-5.72,6.292Q42.328,8.272,42.24,8.36a1.008,1.008,0,0,1-.572.308.66.66,0,0,1-.528-.132.929.929,0,0,1-.308-.44.681.681,0,0,1,.176-.616q.176-.264,2.244-2.992a64.063,64.063,0,0,1,5.676-6.336,16.371,16.371,0,0,1-2.42-4.092,17.165,17.165,0,0,1-1.188-4.8,1.418,1.418,0,0,1,.176-.616.844.844,0,0,1,.616-.264h.968a.592.592,0,0,1,.528.264.844.844,0,0,1,.264.616q0,.088.044.748a13.074,13.074,0,0,0,.264,1.716A14.421,14.421,0,0,0,48.928-5.9a12.059,12.059,0,0,0,1.5,2.64,64.663,64.663,0,0,1,6.2-5.1,40.222,40.222,0,0,1,7.348-4.224.733.733,0,0,1,1.056.44q.352.616-.352.968a39.032,39.032,0,0,0-7.128,4.092A62.563,62.563,0,0,0,51.48-2.112,13.831,13.831,0,0,0,53.944-.176a17.075,17.075,0,0,0,3.432,1.584A14.85,14.85,0,0,0,65.956.132a31.4,31.4,0,0,0,9.2-6.556Q75.68-7.128,76.208-6.424Zm25.432.088q.7-.176.88.7a.832.832,0,0,1-.7.88,38.958,38.958,0,0,0-4.84,1.012q-2.816.748-5.632,1.584T85.932-.44q-2.6.88-4.268,1.408a19.88,19.88,0,0,1-2.332.66q-.4.044-.572-.572a.643.643,0,0,1,.176-.792,3.083,3.083,0,0,1,.88-.44l.264-.176A23.95,23.95,0,0,0,83.116-2.6a37.153,37.153,0,0,0,3.3-3.168A22.421,22.421,0,0,0,89.056-9.2a6.089,6.089,0,0,0,1.056-3.124,2.169,2.169,0,0,0-.572-1.452,1.67,1.67,0,0,0-1.276-.66q-2.112-.44-4.708,2.024a24.477,24.477,0,0,0-4.8,6.864,82.73,82.73,0,0,0-4,10.076q-1.98,5.94-3.74,11.66l-3.96,14.344a.846.846,0,0,1-.792.528h-.7q-.528,0-.616-.264a1.251,1.251,0,0,1-.176-.7L77.7-15.488q.176-.792.88-.616l.528.088a.472.472,0,0,1,.528.352.488.488,0,0,1,.088.616l-2.552,9.24a.254.254,0,0,0,.088-.176.675.675,0,0,1,.088-.264,23.894,23.894,0,0,1,5.456-7.612q2.992-2.6,5.72-2.156a4.2,4.2,0,0,1,3.432,2.552Q93.1-10.648,90.728-7.48a26.764,26.764,0,0,1-2.464,2.948,31.019,31.019,0,0,1-2.728,2.508q1.848-.616,4-1.276t4.312-1.232q2.156-.572,4.18-1.056T101.64-6.336Zm22.528,0q.528-.7,1.144-.176.7.528.176,1.144A30.886,30.886,0,0,1,119.988.4a7.994,7.994,0,0,1-4.62,1.98,3,3,0,0,1-1.76-.44q-.088,0-.264-.176a.078.078,0,0,1-.088-.088q-.088,0-.088-.044t-.088-.044l-.176-.176-.176-.176a5.71,5.71,0,0,1-1.1-2.6,9.169,9.169,0,0,1,.132-3.652A21.091,21.091,0,0,1,107.536-.88a8.069,8.069,0,0,1-3.344,1.5h-.352a3.167,3.167,0,0,1-1.584-.352,3.161,3.161,0,0,1-1.5-2.86A9.8,9.8,0,0,1,101.992-7.3a17.068,17.068,0,0,1,3.916-5.764,8.071,8.071,0,0,1,3.212-1.8,1.95,1.95,0,0,1,.616-.088h.7a4.278,4.278,0,0,1,2.112.88.8.8,0,0,1,.088,1.144q-.44.616-1.144.088a2.023,2.023,0,0,0-1.5-.528,3.467,3.467,0,0,0-1.5,1.056,22.249,22.249,0,0,0-2.024,2.376,22.886,22.886,0,0,0-1.936,3.08A10.839,10.839,0,0,0,103.4-3.608a2.961,2.961,0,0,0-.044,1.98,1.764,1.764,0,0,0,.66.66,8.616,8.616,0,0,0,3.652-2.068,29.858,29.858,0,0,0,5.412-6.556l.176-.176a.254.254,0,0,1,.176-.088l.088-.088h.264q.176,0,.176.088h.088l.792.352a.738.738,0,0,1,.44.968,24.528,24.528,0,0,0-.836,2.376,22.109,22.109,0,0,0-.616,2.6,13.609,13.609,0,0,0-.22,2.288A2.345,2.345,0,0,0,113.96.176a.078.078,0,0,0,.088.088.078.078,0,0,0,.088.088l.264.264q1.144.616,3.608-.748T124.168-6.336Zm22.44-.088q.528-.616,1.144,0a.751.751,0,0,1,0,1.144q-.088.088-1.056.924a15.382,15.382,0,0,1-2.332,1.628,11.188,11.188,0,0,1-2.992,1.188,4.035,4.035,0,0,1-3.036-.4A3.006,3.006,0,0,1,136.884-3.3a4.16,4.16,0,0,1-.4-1.8,8.711,8.711,0,0,1,.22-1.936q.22-.968.484-1.936a5.511,5.511,0,0,0,.044-3.344,1.393,1.393,0,0,0-1.672-.748,7.472,7.472,0,0,0-2.86,1.452A21.253,21.253,0,0,0,129.316-8.4a38.646,38.646,0,0,0-3.344,4.532,27.73,27.73,0,0,0-2.684,5.456l-.616,1.672a.69.69,0,0,1-.7.528h-.352a.51.51,0,0,1-.352-.088.738.738,0,0,1-.44-.968l6.6-18.128a.69.69,0,0,1,.7-.528h.616a.965.965,0,0,1,.616.352.63.63,0,0,1,.088.7l-3.08,7.832a20.688,20.688,0,0,1,4.84-5.544,9.866,9.866,0,0,1,4.708-2.244,3.02,3.02,0,0,1,3.124,1.5q1.056,1.716.088,5.764a21.9,21.9,0,0,0-.572,2.728,1.4,1.4,0,0,0,.572,1.5,2.55,2.55,0,0,0,1.98.264,8.858,8.858,0,0,0,2.156-.836A13,13,0,0,0,145.2-5.192,17.448,17.448,0,0,0,146.608-6.424Zm18.656-.264a.717.717,0,0,1,.968.616.717.717,0,0,1-.616.968A37.309,37.309,0,0,0,158-2.376a60.028,60.028,0,0,0-8.492,4.84,18.751,18.751,0,0,1-.22,7.788,12.051,12.051,0,0,1-2.948,5.764,6.49,6.49,0,0,1-1.98,1.32,7.123,7.123,0,0,1-2.376.616,4.5,4.5,0,0,1-2.244-.4,3.233,3.233,0,0,1-1.584-1.54,4.5,4.5,0,0,1-.352-3.08,8.769,8.769,0,0,1,1.672-3.52,25.4,25.4,0,0,1,3.344-3.74,44.067,44.067,0,0,1,4.488-3.652L146.96-.088q-.352-2.288-.484-4.4a9.91,9.91,0,0,1,.572-4.048,11.984,11.984,0,0,1,1.232-2.332,8.74,8.74,0,0,1,1.848-2.024,8,8,0,0,1,2.288-1.276,4.707,4.707,0,0,1,2.552-.176,3.421,3.421,0,0,1,2.288,1.364,3.912,3.912,0,0,1,.7,2.6.709.709,0,0,1-.264.572.827.827,0,0,1-.528.22.86.86,0,0,1-.792-.88A1.835,1.835,0,0,0,154.7-12.76a4.011,4.011,0,0,0-2.728.528,5.155,5.155,0,0,0-2.112,2.156A9.978,9.978,0,0,0,148.9-7a16.911,16.911,0,0,0-.132,3.7,38.184,38.184,0,0,0,.484,4A63.364,63.364,0,0,1,157.7-4,37.755,37.755,0,0,1,165.264-6.688Zm-19.184,19.1A13.974,13.974,0,0,0,147.4,8.1a20.344,20.344,0,0,0,.088-4.224,43.317,43.317,0,0,0-3.828,3.212,29.071,29.071,0,0,0-2.948,3.212q-2.112,3.08-1.144,5.016a1.966,1.966,0,0,0,1.936,1.056,3.643,3.643,0,0,0,2.42-1.056A10.115,10.115,0,0,0,146.08,12.408Zm26.84-26.752a18.646,18.646,0,0,0-2.86,2.992,15.467,15.467,0,0,0-2.244,4.136,32.878,32.878,0,0,0,5.412-3.74,4.936,4.936,0,0,0,1.716-2.772q.176-.968-.352-1.232Q174.152-15.4,172.92-14.344Zm8.712,8.008q.528-.7,1.056,0a.751.751,0,0,1,0,1.144,24.851,24.851,0,0,1-5.016,3.476A25.124,25.124,0,0,1,170.72.88a8.959,8.959,0,0,1-2.332.264A3.943,3.943,0,0,1,166.32.7q-2.2-1.056-1.584-4.84a16.166,16.166,0,0,1,1.584-4.752,19.135,19.135,0,0,1,2.9-4.312,12.626,12.626,0,0,1,3.432-2.772,3,3,0,0,1,3.08-.132,2.565,2.565,0,0,1,.792,2.552A6.966,6.966,0,0,1,173.8-9.2,47.038,47.038,0,0,1,167.288-5.1q-.088.7-.22,1.628a3.46,3.46,0,0,0,.22,1.8,3.439,3.439,0,0,0,.484.836,1.575,1.575,0,0,0,1.276.4,10.923,10.923,0,0,0,2.772-.44,21.2,21.2,0,0,0,3.344-1.232A28.493,28.493,0,0,0,178.6-4,21.207,21.207,0,0,0,181.632-6.336Z" transform="matrix(0.985, -0.174, 0.174, 0.985, 189.84, 93.891)" fill="#c8bbb2"/>
</svg>
